<svg width="250" height="75" viewBox="0 0 250 75" fill="none" xmlns="http://www.w3.org/2000/svg">
<path d="M248.342 65.3292C248.342 66.2615 248.158 67.1847 247.801 68.0459C247.444 68.9071 246.92 69.6896 246.26 70.3484C245.601 71.0073 244.818 71.5298 243.956 71.8859C243.094 72.242 242.17 72.4247 241.238 72.4238H8.76203C6.8778 72.4257 5.06994 71.6794 3.73603 70.349C2.40212 69.0186 1.65138 67.2129 1.64893 65.3292V8.75249C1.65138 6.86792 2.40182 5.06134 3.73547 3.72943C5.06911 2.39753 6.87695 1.64917 8.76203 1.64868H241.236C242.169 1.64868 243.093 1.83244 243.955 2.18946C244.817 2.54649 245.6 3.06978 246.26 3.72945C246.919 4.38913 247.443 5.17226 247.8 6.03412C248.156 6.89599 248.34 7.8197 248.34 8.75249L248.342 65.3292Z" fill="white"/>
<path d="M241.238 74.0741H8.76215C6.441 74.0737 4.21484 73.1526 2.57215 71.5132C0.929459 69.8737 0.00441651 67.6497 0 65.3291L0 8.75427C0.00343381 6.43258 0.927866 4.20705 2.5705 2.56589C4.21314 0.924734 6.43984 0.00195959 8.76215 0L241.236 0C243.558 0.00293738 245.784 0.926026 247.427 2.56697C249.069 4.20792 249.994 6.43288 249.998 8.75427V65.3291C250.002 70.1527 246.065 74.0741 241.238 74.0741Z" fill="#A6A6A6"/>
<path d="M248.342 65.3292C248.342 66.2615 248.158 67.1847 247.801 68.0459C247.444 68.9071 246.92 69.6896 246.26 70.3484C245.601 71.0073 244.818 71.5298 243.956 71.8859C243.094 72.242 242.17 72.4247 241.238 72.4238H8.76203C6.8778 72.4257 5.06994 71.6794 3.73603 70.349C2.40212 69.0186 1.65138 67.2129 1.64893 65.3292V8.75249C1.65138 6.86792 2.40182 5.06134 3.73547 3.72943C5.06911 2.39753 6.87695 1.64917 8.76203 1.64868H241.236C242.169 1.64868 243.093 1.83244 243.955 2.18946C244.817 2.54649 245.6 3.06978 246.26 3.72945C246.919 4.38913 247.443 5.17226 247.8 6.03412C248.156 6.89599 248.34 7.8197 248.34 8.75249L248.342 65.3292Z" fill="black"/>
<path d="M55.8227 36.6471C55.7689 30.677 60.7123 27.7725 60.9384 27.6372C58.1387 23.5565 53.7993 22.9989 52.2744 22.9545C48.6299 22.571 45.0946 25.1347 43.2381 25.1347C41.3445 25.1347 38.4855 22.9915 35.4042 23.0545C31.4391 23.1156 27.7297 25.4107 25.6953 28.9746C21.4967 36.2415 24.628 46.9203 28.6506 52.7942C30.6628 55.6727 33.014 58.8829 36.0916 58.7699C39.1025 58.6476 40.2272 56.8527 43.8606 56.8527C47.4607 56.8527 48.5169 58.7699 51.6556 58.6977C54.887 58.6476 56.9214 55.808 58.8632 52.9053C61.1885 49.61 62.1224 46.3609 62.1594 46.1942C62.0853 46.1683 55.8857 43.801 55.8227 36.6471ZM49.8935 19.0904C51.5129 17.0658 52.6209 14.3113 52.3134 11.5161C49.9695 11.6198 47.0383 13.1369 45.3503 15.1171C43.8569 16.862 42.5229 19.7221 42.8675 22.4117C45.5004 22.6081 48.2037 21.0836 49.8935 19.0904Z" fill="white"/>
<path d="M241.238 0H116.717L165.489 74.0741H241.238C243.559 74.0722 245.786 73.1499 247.428 71.5096C249.071 69.8692 249.996 67.6446 250 65.3236V8.75427C249.996 6.43273 249.071 4.20749 247.429 2.56643C245.786 0.92538 243.56 0.00244867 241.238 0Z" fill="url(#paint0_linear_1587_5085)"/>
<path d="M99.4335 58.3569H95.2257L92.9207 51.116H84.909L82.7134 58.3569H78.6167L86.5562 33.7056H91.4588L99.4335 58.3569ZM92.2259 48.0781L90.1415 41.6411C89.921 40.9835 89.5059 39.435 88.8982 36.9973H88.8241C88.5795 38.0457 88.1885 39.5943 87.6531 41.6411L85.6038 48.0781H92.2259ZM119.811 49.2506C119.811 52.2737 118.99 54.6633 117.347 56.4174C115.876 57.979 114.047 58.7588 111.866 58.7588C109.511 58.7588 107.818 57.9197 106.789 56.2378V65.5644H102.839V46.4239C102.839 44.5253 102.789 42.5784 102.693 40.5816H106.167L106.387 43.399H106.461C107.779 41.2762 109.778 40.2148 112.461 40.2148C114.558 40.2148 116.309 41.0428 117.71 42.7007C119.109 44.3623 119.811 46.5443 119.811 49.2506ZM115.787 49.3951C115.787 47.665 115.398 46.2387 114.616 45.1143C113.762 43.9455 112.615 43.3601 111.177 43.3601C110.202 43.3601 109.317 43.6861 108.525 44.3289C107.732 44.9772 107.214 45.8238 106.971 46.8722C106.863 47.2643 106.801 47.6678 106.787 48.0744V51.04C106.787 52.3311 107.184 53.4222 107.977 54.315C108.77 55.2041 109.8 55.6506 111.068 55.6506C112.555 55.6506 113.713 55.0745 114.542 53.9316C115.372 52.785 115.787 51.2734 115.787 49.3951ZM140.261 49.2506C140.261 52.2737 139.44 54.6633 137.797 56.4174C136.324 57.979 134.497 58.7588 132.314 58.7588C129.959 58.7588 128.266 57.9197 127.237 56.2378V65.5644H123.287V46.4239C123.287 44.5253 123.237 42.5784 123.141 40.5816H126.615L126.835 43.399H126.909C128.225 41.2762 130.224 40.2148 132.909 40.2148C135.005 40.2148 136.756 41.0428 138.16 42.7007C139.557 44.3623 140.261 46.5443 140.261 49.2506ZM136.235 49.3951C136.235 47.665 135.844 46.2387 135.062 45.1143C134.208 43.9455 133.065 43.3601 131.627 43.3601C130.652 43.3601 129.767 43.6861 128.972 44.3289C128.179 44.9772 127.662 45.8238 127.419 46.8722C127.299 47.3612 127.234 47.7595 127.234 48.0744V51.04C127.234 52.3311 127.632 53.4222 128.421 54.315C129.214 55.2023 130.245 55.6506 131.516 55.6506C133.005 55.6506 134.163 55.0745 134.99 53.9316C135.82 52.785 136.235 51.2734 136.235 49.3951ZM163.125 51.442C163.125 53.5407 162.392 55.2467 160.933 56.5638C159.329 58.0012 157.089 58.7218 154.217 58.7218C151.564 58.7218 149.436 58.2105 147.832 57.1862L148.745 53.8945C150.478 54.9207 152.381 55.432 154.452 55.432C155.942 55.432 157.1 55.0948 157.926 54.4261C158.754 53.7556 159.173 52.859 159.173 51.7402C159.173 50.7381 158.827 49.899 158.147 49.2154C157.463 48.5338 156.333 47.8984 154.745 47.3149C150.428 45.7052 148.267 43.3509 148.267 40.2537C148.267 38.2309 149.031 36.5749 150.554 35.2801C152.077 33.9872 154.096 33.3407 156.609 33.3407C158.853 33.3407 160.722 33.7315 162.206 34.5114L161.215 37.7308C159.818 36.975 158.241 36.5972 156.477 36.5972C155.084 36.5972 153.991 36.9398 153.209 37.6215C152.551 38.2309 152.218 38.9737 152.218 39.8555C152.218 40.828 152.597 41.6356 153.353 42.2691C154.009 42.8526 155.206 43.4879 156.937 44.1696C159.06 45.0254 160.62 46.022 161.619 47.1667C162.625 48.3115 163.125 49.7397 163.125 51.442ZM176.219 43.5454H171.865V52.1755C171.865 54.3706 172.632 55.4653 174.17 55.4653C174.876 55.4653 175.462 55.406 175.925 55.2819L176.034 58.2809C175.256 58.5717 174.231 58.7181 172.962 58.7181C171.402 58.7181 170.183 58.242 169.303 57.2899C168.426 56.3378 167.985 54.7429 167.985 52.4978V43.538H165.391V40.5742H167.985V37.3196L171.865 36.1489V40.5742H176.219V43.5454ZM195.826 49.3229C195.826 52.0551 195.044 54.2983 193.484 56.0525C191.852 57.8586 189.68 58.7588 186.973 58.7588C184.361 58.7588 182.284 57.8938 180.735 56.1655C179.186 54.4336 178.411 52.2515 178.411 49.6193C178.411 46.8648 179.212 44.6086 180.807 42.8544C182.406 41.0984 184.559 40.2204 187.266 40.2204C189.875 40.2204 191.971 41.0873 193.557 42.8174C195.072 44.4956 195.826 46.6629 195.826 49.3229ZM191.732 49.4137C191.732 47.7854 191.38 46.3887 190.674 45.2199C189.845 43.8084 188.66 43.1026 187.124 43.1026C185.541 43.1026 184.328 43.8084 183.501 45.2199C182.793 46.3887 182.441 47.8095 182.441 49.4877C182.441 51.1178 182.793 52.5182 183.501 53.6834C184.355 55.0949 185.547 55.8006 187.09 55.8006C188.6 55.8006 189.784 55.08 190.64 53.6482C191.367 52.4515 191.732 51.0456 191.732 49.4137ZM208.672 44.0548C208.261 43.9806 207.845 43.944 207.427 43.9455C206.037 43.9455 204.963 44.4678 204.207 45.52C203.551 46.4462 203.221 47.6169 203.221 49.0302V58.3569H199.271V46.1794C199.274 44.3135 199.236 42.4477 199.156 40.5834H202.597L202.741 43.9844H202.851C203.269 42.8155 203.925 41.8727 204.826 41.1669C205.65 40.5502 206.651 40.2163 207.681 40.2148C208.046 40.2148 208.376 40.2408 208.669 40.2871L208.672 44.0548ZM226.339 48.6283C226.349 49.2286 226.301 49.8285 226.195 50.4195H214.344C214.388 52.1755 214.963 53.5203 216.063 54.4465C217.062 55.2727 218.353 55.6876 219.939 55.6876C221.694 55.6876 223.295 55.4098 224.735 54.8485L225.353 57.5881C223.671 58.3217 221.685 58.6866 219.393 58.6866C216.636 58.6866 214.472 57.8752 212.897 56.2563C211.325 54.6355 210.538 52.4571 210.538 49.7286C210.538 47.05 211.27 44.8179 212.736 43.0378C214.27 41.1373 216.343 40.187 218.952 40.187C221.514 40.187 223.454 41.1373 224.772 43.0378C225.815 44.5438 226.339 46.411 226.339 48.6283ZM222.572 47.6039C222.6 46.4313 222.341 45.4218 221.805 44.5679C221.122 43.4676 220.069 42.9193 218.659 42.9193C217.368 42.9193 216.315 43.4546 215.515 44.529C214.857 45.3829 214.466 46.4091 214.346 47.6002L222.572 47.6039Z" fill="white"/>
<path d="M83.7694 24.9902C82.6706 24.9902 81.7201 24.9365 80.929 24.8458V12.9277C82.0355 12.7568 83.1537 12.6725 84.2734 12.6757C88.8036 12.6757 90.8899 14.9041 90.8899 18.5366C90.8899 22.7267 88.4256 24.9902 83.7694 24.9902ZM84.4327 14.2039C83.8213 14.2039 83.3006 14.241 82.8689 14.3299V23.3898C83.1023 23.4269 83.5507 23.4435 84.1807 23.4435C87.149 23.4435 88.8388 21.7542 88.8388 18.5903C88.8388 15.7692 87.3102 14.2039 84.4327 14.2039ZM97.3916 25.081C94.8383 25.081 93.1837 23.1749 93.1837 20.5872C93.1837 17.8901 94.8735 15.9674 97.5361 15.9674C100.052 15.9674 101.744 17.7827 101.744 20.4445C101.744 23.1749 100 25.081 97.3916 25.081ZM97.4657 17.3863C96.0631 17.3863 95.1644 18.6978 95.1644 20.5316C95.1644 22.3303 96.0816 23.6417 97.4471 23.6417C98.8127 23.6417 99.7299 22.2395 99.7299 20.4946C99.7299 18.7163 98.8312 17.3863 97.4657 17.3863ZM116.304 16.1471L113.571 24.8828H111.79L110.658 21.0892C110.377 20.1612 110.142 19.2196 109.956 18.268H109.919C109.776 19.2201 109.506 20.1741 109.218 21.0892L108.014 24.8828H106.215L103.643 16.1471H105.639L106.628 20.3001C106.861 21.2892 107.058 22.2228 107.221 23.1045H107.258C107.401 22.3692 107.634 21.4504 107.977 20.3186L109.218 16.1489H110.801L111.988 20.2297C112.276 21.2188 112.509 22.1895 112.691 23.1064H112.742C112.868 22.208 113.067 21.254 113.335 20.2297L114.397 16.1489L116.304 16.1471ZM126.365 24.8828H124.423V19.8666C124.423 18.3217 123.83 17.5474 122.661 17.5474C121.51 17.5474 120.719 18.5366 120.719 19.6869V24.8828H118.777V18.644C118.777 17.8716 118.759 17.0436 118.705 16.1452H120.413L120.504 17.4937H120.558C121.08 16.5601 122.14 15.9674 123.328 15.9674C125.162 15.9674 126.366 17.3696 126.366 19.6517L126.365 24.8828ZM131.719 24.8828H129.776V12.1385H131.719V24.8828ZM138.799 25.081C136.248 25.081 134.591 23.1749 134.591 20.5872C134.591 17.8901 136.281 15.9674 138.942 15.9674C141.46 15.9674 143.15 17.7827 143.15 20.4445C143.151 23.1749 141.406 25.081 138.799 25.081ZM138.871 17.3863C137.469 17.3863 136.57 18.6978 136.57 20.5316C136.57 22.3303 137.489 23.6417 138.851 23.6417C140.218 23.6417 141.134 22.2395 141.134 20.4946C141.136 18.7163 140.239 17.3863 138.871 17.3863ZM150.806 24.8828L150.665 23.877H150.613C150.02 24.6865 149.155 25.081 148.058 25.081C146.492 25.081 145.38 23.9844 145.38 22.5099C145.38 20.3538 147.25 19.2387 150.487 19.2387V19.0775C150.487 17.9272 149.877 17.3511 148.673 17.3511C147.811 17.3511 147.055 17.5678 146.39 17.9994L145.996 16.7231C146.803 16.2193 147.811 15.9674 148.995 15.9674C151.278 15.9674 152.431 17.1714 152.431 19.5813V22.7989C152.431 23.6806 152.469 24.3641 152.557 24.8847L150.806 24.8828ZM150.539 20.5316C148.382 20.5316 147.3 21.054 147.3 22.2932C147.3 23.2101 147.858 23.6584 148.632 23.6584C149.62 23.6584 150.539 22.9045 150.539 21.8801V20.5316ZM161.86 24.8828L161.769 23.4806H161.715C161.158 24.5401 160.22 25.081 158.91 25.081C156.803 25.081 155.243 23.2286 155.243 20.6224C155.243 17.8901 156.861 15.9655 159.069 15.9655C160.238 15.9655 161.067 16.3601 161.534 17.1529H161.573V12.1385H163.516V22.5285C163.516 23.3731 163.537 24.1641 163.588 24.8828H161.86ZM161.573 19.7425C161.573 18.5199 160.763 17.4771 159.527 17.4771C158.087 17.4771 157.207 18.7533 157.207 20.5501C157.207 22.3117 158.121 23.5176 159.488 23.5176C160.709 23.5176 161.573 22.4562 161.573 21.1985V19.7425ZM175.84 25.081C173.288 25.081 171.634 23.1749 171.634 20.5872C171.634 17.8901 173.323 15.9674 175.984 15.9674C178.502 15.9674 180.192 17.7827 180.192 20.4445C180.194 23.1749 178.45 25.081 175.84 25.081ZM175.912 17.3863C174.511 17.3863 173.612 18.6978 173.612 20.5316C173.612 22.3303 174.53 23.6417 175.893 23.6417C177.261 23.6417 178.176 22.2395 178.176 20.4946C178.18 18.7163 177.281 17.3863 175.912 17.3863ZM190.635 24.8828H188.691V19.8666C188.691 18.3217 188.098 17.5474 186.929 17.5474C185.778 17.5474 184.989 18.5366 184.989 19.6869V24.8828H183.045V18.644C183.045 17.8716 183.027 17.0436 182.973 16.1452H184.681L184.772 17.4937H184.826C185.347 16.5601 186.408 15.9655 187.594 15.9655C189.428 15.9655 190.635 17.3678 190.635 19.6499V24.8828ZM203.699 17.603H201.563V21.8449C201.563 22.9249 201.937 23.4639 202.693 23.4639C203.036 23.4639 203.323 23.4269 203.555 23.3731L203.608 24.8476C203.232 24.9921 202.728 25.0643 202.102 25.0643C200.571 25.0643 199.656 24.2197 199.656 22.0079V17.603H198.381V16.1471H199.656V14.5466L201.563 13.9705V16.1452H203.699V17.603ZM213.979 24.8828H212.039V19.9037C212.039 18.3403 211.448 17.5493 210.277 17.5493C209.271 17.5493 208.333 18.2328 208.333 19.6165V24.8828H206.393V12.1385H208.333V17.3863H208.372C208.983 16.4342 209.869 15.9655 210.999 15.9655C212.848 15.9655 213.979 17.403 213.979 19.6869V24.8828ZM224.51 20.9817H218.683C218.72 22.6359 219.815 23.5695 221.436 23.5695C222.298 23.5695 223.091 23.425 223.791 23.1564L224.093 24.5049C223.267 24.8643 222.294 25.044 221.162 25.044C218.429 25.044 216.812 23.3176 216.812 20.6409C216.812 17.9624 218.468 15.9489 220.944 15.9489C223.176 15.9489 224.577 17.603 224.577 20.1019C224.59 20.3968 224.567 20.6921 224.51 20.9817ZM222.73 19.598C222.73 18.2495 222.05 17.2974 220.808 17.2974C219.693 17.2974 218.811 18.268 218.685 19.598H222.73Z" fill="white"/>
<defs>
<linearGradient id="paint0_linear_1587_5085" x1="183.356" y1="74.2708" x2="183.356" y2="-192.876" gradientUnits="userSpaceOnUse">
<stop stop-color="#1A1A1A" stop-opacity="0.1"/>
<stop offset="0.123" stop-color="#212121" stop-opacity="0.151"/>
<stop offset="0.308" stop-color="#353535" stop-opacity="0.227"/>
<stop offset="0.532" stop-color="#575757" stop-opacity="0.318"/>
<stop offset="0.783" stop-color="#858585" stop-opacity="0.421"/>
<stop offset="1" stop-color="#B3B3B3" stop-opacity="0.51"/>
</linearGradient>
</defs>
</svg>
