<svg width="21" height="27" viewBox="0 0 21 27" fill="none" xmlns="http://www.w3.org/2000/svg">
<path d="M17.4808 14.3047C17.5169 18.1849 20.8847 19.4761 20.922 19.4925C20.8936 19.5836 20.3839 21.3326 19.1477 23.1393C18.079 24.7012 16.9699 26.2574 15.2227 26.2896C13.5059 26.3212 12.9538 25.2715 10.9911 25.2715C9.02887 25.2715 8.41552 26.2574 6.79038 26.3212C5.10388 26.3851 3.81964 24.6322 2.7421 23.076C0.54028 19.8928 -1.14237 14.0809 1.117 10.1578C2.23941 8.20957 4.24523 6.97587 6.42237 6.94423C8.07847 6.91264 9.64162 8.0584 10.654 8.0584C11.6658 8.0584 13.5653 6.68053 15.5623 6.88289C16.3983 6.91768 18.7449 7.22058 20.2517 9.4262C20.1303 9.50146 17.4517 11.0608 17.4808 14.3047V14.3047ZM14.2543 4.77689C15.1497 3.69308 15.7523 2.18431 15.5879 0.683105C14.2973 0.734976 12.7367 1.54313 11.8109 2.62634C10.9813 3.58558 10.2547 5.1209 10.4508 6.5924C11.8893 6.70369 13.3589 5.86139 14.2543 4.77689" fill="#292D32"/>
</svg>
