<svg width="27" height="30" viewBox="0 0 27 30" fill="none" xmlns="http://www.w3.org/2000/svg">
<path d="M14.4166 29.2562L14.4006 29.2588L14.3056 29.3057L14.2788 29.311L14.2601 29.3057L14.1651 29.2575C14.1508 29.2539 14.1401 29.2566 14.133 29.2655L14.1277 29.2789L14.1049 29.8515L14.1116 29.8782L14.125 29.8956L14.2641 29.9946L14.2842 30L14.3002 29.9946L14.4394 29.8956L14.4554 29.8742L14.4608 29.8515L14.438 29.2802C14.4345 29.266 14.4273 29.2579 14.4166 29.2562ZM14.7698 29.105L14.7511 29.1077L14.5049 29.2321L14.4915 29.2455L14.4875 29.2602L14.5116 29.8354L14.5183 29.8515L14.529 29.8622L14.7979 29.9853C14.8148 29.9897 14.8278 29.9862 14.8367 29.9746L14.842 29.9558L14.7966 29.1344C14.7921 29.1175 14.7832 29.1077 14.7698 29.105ZM13.8133 29.1077C13.8074 29.1041 13.8003 29.1029 13.7936 29.1044C13.7869 29.1059 13.781 29.11 13.7771 29.1157L13.7691 29.1344L13.7236 29.9558C13.7245 29.9719 13.7321 29.9826 13.7464 29.9879L13.7664 29.9853L14.0353 29.8609L14.0487 29.8502L14.0527 29.8354L14.0768 29.2602L14.0728 29.2441L14.0594 29.2307L13.8133 29.1077Z" fill="black"/>
<path d="M17.6352 0.816834C18.8865 0.816708 20.1127 1.16754 21.1745 1.82947C22.2363 2.4914 23.0912 3.43788 23.642 4.56138L23.7678 4.83028H25.6621C25.8887 4.83027 26.1117 4.88783 26.31 4.99756C26.5082 5.1073 26.6754 5.26561 26.7958 5.45764C26.9161 5.64967 26.9857 5.86913 26.998 6.09542C27.0103 6.32172 26.965 6.54743 26.8661 6.75139L26.7752 6.91059L24.6989 10.0237C24.5397 10.263 24.4618 10.5473 24.4768 10.8344L24.4955 11.0056L24.6842 12.0411C26.0073 19.3162 20.5262 26.0226 13.1883 26.23L12.8378 26.2353H1.58142C1.33922 26.2354 1.10155 26.1697 0.893775 26.0452C0.685996 25.9207 0.515902 25.7422 0.401639 25.5287C0.287377 25.3151 0.233233 25.0745 0.244984 24.8326C0.256735 24.5907 0.333939 24.3565 0.468362 24.155L5.80892 16.1148L8.50061 12.108L10.4284 9.21431C10.766 8.70852 10.9462 8.11403 10.9461 7.50591C10.9461 5.73186 11.6509 4.03047 12.9053 2.77602C14.1598 1.52157 15.8612 0.816834 17.6352 0.816834ZM17.6352 3.49247C16.6115 3.49241 15.6265 3.88354 14.8816 4.58584C14.1368 5.28814 13.6885 6.24851 13.6285 7.27046L13.6218 7.50591C13.6219 8.43806 13.3956 9.35628 12.9622 10.1815C14.2024 10.184 15.391 10.6784 16.2671 11.5563C17.1432 12.4341 17.6352 13.6237 17.6352 14.8639C17.6352 16.694 16.7322 18.1148 15.5188 19.181C14.3295 20.2245 12.7749 20.9951 11.2378 21.5971C10.1327 22.0292 8.98222 22.3945 7.90796 22.7142L5.3059 23.4701L5.00623 23.5597H12.8365C18.6801 23.5597 23.0962 18.2686 22.05 12.52L21.8627 11.4846C21.6764 10.4613 21.8946 9.4056 22.4714 8.54005L23.1617 7.50591C22.4393 7.50591 21.7276 7.29989 21.5216 6.50255C21.2991 5.64098 20.7966 4.87777 20.0932 4.3329C19.3897 3.78802 18.525 3.49239 17.6352 3.49247ZM12.9529 12.8572C12.5903 12.8572 12.0659 12.9508 11.5669 13.1368C11.0652 13.3241 10.7883 13.5314 10.692 13.6425L6.16478 20.4346C7.49992 20.0506 8.92737 19.6279 10.2625 19.1048C11.69 18.5469 12.9087 17.9114 13.7529 17.1703C14.5716 16.4519 14.9596 15.7094 14.9596 14.8639C14.9596 14.3317 14.7482 13.8213 14.3718 13.4449C13.9955 13.0686 13.4851 12.8572 12.9529 12.8572ZM17.6352 6.1681C17.99 6.1681 18.3303 6.30905 18.5812 6.55994C18.8321 6.81083 18.973 7.1511 18.973 7.50591C18.973 7.86073 18.8321 8.201 18.5812 8.45189C18.3303 8.70278 17.99 8.84373 17.6352 8.84373C17.2804 8.84373 16.9401 8.70278 16.6892 8.45189C16.4383 8.201 16.2974 7.86073 16.2974 7.50591C16.2974 7.1511 16.4383 6.81083 16.6892 6.55994C16.9401 6.30905 17.2804 6.1681 17.6352 6.1681Z" fill="black"/>
</svg>
