<svg width="30" height="30" viewBox="0 0 30 30" fill="none" xmlns="http://www.w3.org/2000/svg">
<path d="M11.6538 16.4996C11.6538 16.7963 11.5693 17.0863 11.4108 17.333C11.2523 17.5796 11.027 17.7719 10.7635 17.8854C10.4999 17.999 10.2099 18.0287 9.93016 17.9708C9.65038 17.9129 9.39338 17.7701 9.19167 17.5603C8.98996 17.3505 8.8526 17.0832 8.79694 16.7922C8.74129 16.5012 8.76985 16.1996 8.87902 15.9255C8.98818 15.6514 9.17305 15.4172 9.41024 15.2523C9.64742 15.0875 9.92628 14.9995 10.2115 14.9995C10.5941 14.9995 10.9609 15.1576 11.2314 15.4389C11.5019 15.7202 11.6538 16.1017 11.6538 16.4996ZM20.7885 14.9995C20.5032 14.9995 20.2243 15.0875 19.9872 15.2523C19.75 15.4172 19.5651 15.6514 19.4559 15.9255C19.3468 16.1996 19.3182 16.5012 19.3739 16.7922C19.4295 17.0832 19.5669 17.3505 19.7686 17.5603C19.9703 17.7701 20.2273 17.9129 20.5071 17.9708C20.7869 18.0287 21.0769 17.999 21.3404 17.8854C21.604 17.7719 21.8292 17.5796 21.9877 17.333C22.1462 17.0863 22.2308 16.7963 22.2308 16.4996C22.2308 16.1017 22.0788 15.7202 21.8083 15.4389C21.5378 15.1576 21.171 14.9995 20.7885 14.9995ZM28 4.99915V15.9996C28 22.6161 22.393 28 15.5 28C8.60697 28 3 22.6161 3 15.9996V4.99915C3.00018 4.60371 3.11306 4.21719 3.32438 3.88845C3.5357 3.55971 3.83598 3.3035 4.18727 3.1522C4.53855 3.00089 4.92508 2.96128 5.29801 3.03838C5.67093 3.11548 6.01351 3.30582 6.28245 3.58535C6.29928 3.60285 6.3137 3.6191 6.32812 3.6366L8.40865 6.12419C10.536 4.73799 12.9956 4.00281 15.506 4.00281C18.0164 4.00281 20.476 4.73799 22.6034 6.12419L24.6719 3.6366C24.6863 3.6191 24.7007 3.60285 24.7175 3.58535C24.9865 3.30582 25.3291 3.11548 25.702 3.03838C26.0749 2.96128 26.4614 3.00089 26.8127 3.1522C27.164 3.3035 27.4643 3.55971 27.6756 3.88845C27.8869 4.21719 27.9998 4.60371 28 4.99915ZM26.0769 4.99915L23.4856 8.09926C23.3271 8.28999 23.1051 8.41141 22.8642 8.43923C22.6233 8.46704 22.3812 8.3992 22.1863 8.24927C21.5996 7.79822 20.9702 7.41077 20.3077 7.09298V9.99933C20.3077 10.2646 20.2064 10.5189 20.0261 10.7065C19.8457 10.894 19.6012 10.9994 19.3462 10.9994C19.0911 10.9994 18.8466 10.894 18.6662 10.7065C18.4859 10.5189 18.3846 10.2646 18.3846 9.99933V6.38045C17.7538 6.21167 17.1105 6.09794 16.4615 6.04044V9.99933C16.4615 10.2646 16.3602 10.5189 16.1799 10.7065C15.9996 10.894 15.755 10.9994 15.5 10.9994C15.245 10.9994 15.0004 10.894 14.8201 10.7065C14.6398 10.5189 14.5385 10.2646 14.5385 9.99933V6.04044C13.8895 6.09794 13.2462 6.21167 12.6154 6.38045V9.99933C12.6154 10.2646 12.5141 10.5189 12.3338 10.7065C12.1534 10.894 11.9089 10.9994 11.6538 10.9994C11.3988 10.9994 11.1543 10.894 10.9739 10.7065C10.7936 10.5189 10.6923 10.2646 10.6923 9.99933V7.09298C10.0298 7.41077 9.40035 7.79822 8.8137 8.24927C8.61926 8.39964 8.3774 8.46811 8.1365 8.44099C7.8956 8.41388 7.67343 8.29317 7.51442 8.10301L4.92308 4.99915V15.9996C4.92308 21.2072 9.15505 25.4999 14.5385 25.9587V23.4136L12.8966 21.706C12.8074 21.6131 12.7366 21.5028 12.6883 21.3814C12.64 21.2601 12.6152 21.13 12.6153 20.9987C12.6153 20.8673 12.6403 20.7373 12.6886 20.616C12.737 20.4946 12.8079 20.3844 12.8972 20.2916C13.0777 20.1041 13.3223 19.9988 13.5773 19.999C13.7036 19.999 13.8287 20.025 13.9453 20.0753C14.062 20.1256 14.168 20.1993 14.2572 20.2922L15.5 21.5848L16.7428 20.2922C16.832 20.1993 16.938 20.1256 17.0547 20.0753C17.1713 20.025 17.2964 19.999 17.4227 19.999C17.5489 19.9989 17.674 20.0247 17.7907 20.0749C17.9074 20.1251 18.0134 20.1988 18.1028 20.2916C18.1921 20.3844 18.263 20.4946 18.3114 20.616C18.3597 20.7373 18.3847 20.8673 18.3847 20.9987C18.3848 21.13 18.36 21.2601 18.3117 21.3814C18.2634 21.5028 18.1926 21.6131 18.1034 21.706L16.4615 23.4136V25.9587C21.845 25.4974 26.0769 21.2085 26.0769 15.9996V4.99915Z" fill="black"/>
</svg>
