<svg width="34" height="32" viewBox="0 0 34 32" fill="none" xmlns="http://www.w3.org/2000/svg">
<path d="M23.1111 19.2768V20.0583M15.6869 22.7936H18.0314L16.8591 23.9658L15.6869 22.7936Z" stroke="#0C3C4A" stroke-width="3.8372" stroke-linecap="round" stroke-linejoin="round"/>
<path d="M5.01158 14.9739C4.57494 16.6632 4.35436 18.4011 4.35512 20.1459C4.35512 26.6667 9.95377 30.2178 16.8591 30.2178C23.7644 30.2178 29.363 26.6667 29.363 20.1459C29.3553 18.3939 29.0958 16.6521 28.5925 14.9739M10.6071 19.2769V20.0584" stroke="#0C3C4A" stroke-width="2.8779" stroke-linecap="round" stroke-linejoin="round"/>
<path d="M11.3886 10.6804C10.7884 12.3215 9.6959 13.8501 7.72496 14.5879C4.70682 15.7163 2.1357 14.1236 2.01066 13.0249C1.83404 11.4712 3.8503 2.81851 8.26263 2.0839C11.2683 1.58218 13.9691 3.40463 13.9691 5.57719C15.946 5.07534 18.0196 5.09797 19.9851 5.64284C19.9851 3.47028 22.8673 1.58218 25.8729 2.0839C30.2852 2.81851 32.3015 11.4712 32.1249 13.0249C31.9998 14.1236 29.4287 15.7163 26.4106 14.5879C24.4396 13.8501 23.5112 12.3215 22.911 10.6804" stroke="#0C3C4A" stroke-width="2.8779" stroke-linecap="round" stroke-linejoin="round"/>
</svg>
