<svg width="250" height="75" viewBox="0 0 250 75" fill="none" xmlns="http://www.w3.org/2000/svg">
<path d="M240.741 74.0741H9.25926C4.07407 74.0741 0 70 0 64.8148V9.25926C0 4.07407 4.07407 0 9.25926 0H240.741C245.926 0 250 4.07407 250 9.25926V64.8148C250 70 245.926 74.0741 240.741 74.0741Z" fill="black"/>
<path d="M240.741 1.48148C245 1.48148 248.519 5 248.519 9.25926V64.8148C248.519 69.0741 245 72.5926 240.741 72.5926H9.25926C5 72.5926 1.48148 69.0741 1.48148 64.8148V9.25926C1.48148 5 5 1.48148 9.25926 1.48148H240.741ZM240.741 0H9.25926C4.07407 0 0 4.25926 0 9.25926V64.8148C0 70 4.07407 74.0741 9.25926 74.0741H240.741C245.926 74.0741 250 70 250 64.8148V9.25926C250 4.25926 245.926 0 240.741 0Z" fill="#A6A6A6"/>
<path d="M87.7779 18.8889C87.7779 20.3704 87.4075 21.6667 86.4816 22.5926C85.3704 23.7038 84.0742 24.2593 82.4075 24.2593C80.7408 24.2593 79.4445 23.7038 78.3334 22.5926C77.2223 21.4815 76.6667 20.1852 76.6667 18.5186C76.6667 16.8519 77.2223 15.5556 78.3334 14.4445C79.4445 13.3334 80.7408 12.7778 82.4075 12.7778C83.1482 12.7778 83.889 12.963 84.6297 13.3334C85.3704 13.7038 85.926 14.0741 86.2964 14.6297L85.3704 15.5556C84.6297 14.6297 83.7038 14.2593 82.4075 14.2593C81.2964 14.2593 80.1853 14.6297 79.4445 15.5556C78.5186 16.2963 78.1482 17.4075 78.1482 18.7038C78.1482 20.0001 78.5186 21.1112 79.4445 21.8519C80.3705 22.5926 81.2964 23.1482 82.4075 23.1482C83.7038 23.1482 84.6297 22.7778 85.5556 21.8519C86.1112 21.2964 86.4816 20.5556 86.4816 19.6297H82.4075V18.1482H87.7779V18.8889ZM96.2964 14.2593H91.2964V17.7778H95.926V19.0741H91.2964V22.5926H96.2964V24.0741H89.8149V12.963H96.2964V14.2593ZM102.407 24.0741H100.926V14.2593H97.7779V12.963H105.556V14.2593H102.407V24.0741ZM110.926 24.0741V12.963H112.407V24.0741H110.926ZM118.704 24.0741H117.222V14.2593H114.074V12.963H121.667V14.2593H118.519V24.0741H118.704ZM136.296 22.5926C135.185 23.7038 133.889 24.2593 132.222 24.2593C130.556 24.2593 129.259 23.7038 128.148 22.5926C127.037 21.4815 126.482 20.1852 126.482 18.5186C126.482 16.8519 127.037 15.5556 128.148 14.4445C129.259 13.3334 130.556 12.7778 132.222 12.7778C133.889 12.7778 135.185 13.3334 136.296 14.4445C137.407 15.5556 137.963 16.8519 137.963 18.5186C137.963 20.1852 137.407 21.4815 136.296 22.5926ZM129.259 21.6667C130 22.4075 131.111 22.963 132.222 22.963C133.333 22.963 134.445 22.5926 135.185 21.6667C135.926 20.926 136.482 19.8149 136.482 18.5186C136.482 17.2223 136.111 16.1112 135.185 15.3704C134.445 14.6297 133.333 14.0741 132.222 14.0741C131.111 14.0741 130 14.4445 129.259 15.3704C128.519 16.1112 127.963 17.2223 127.963 18.5186C127.963 19.8149 128.333 20.926 129.259 21.6667ZM140 24.0741V12.963H141.667L147.037 21.6667V12.963H148.519V24.0741H147.037L141.296 15.0001V24.0741H140Z" fill="white" stroke="white" stroke-width="1.18519" stroke-miterlimit="10"/>
<path d="M126.111 40.3703C121.667 40.3703 118.148 43.7037 118.148 48.3333C118.148 52.7777 121.667 56.2963 126.111 56.2963C130.556 56.2963 134.074 52.9629 134.074 48.3333C134.074 43.5185 130.556 40.3703 126.111 40.3703ZM126.111 52.9629C123.704 52.9629 121.667 50.9259 121.667 48.1481C121.667 45.3703 123.704 43.3333 126.111 43.3333C128.518 43.3333 130.556 45.1851 130.556 48.1481C130.556 50.9259 128.518 52.9629 126.111 52.9629ZM108.889 40.3703C104.444 40.3703 100.926 43.7037 100.926 48.3333C100.926 52.7777 104.444 56.2963 108.889 56.2963C113.333 56.2963 116.852 52.9629 116.852 48.3333C116.852 43.5185 113.333 40.3703 108.889 40.3703ZM108.889 52.9629C106.481 52.9629 104.444 50.9259 104.444 48.1481C104.444 45.3703 106.481 43.3333 108.889 43.3333C111.296 43.3333 113.333 45.1851 113.333 48.1481C113.333 50.9259 111.296 52.9629 108.889 52.9629ZM88.3333 42.7777V46.1111H96.2963C96.1111 47.9629 95.3703 49.4444 94.4444 50.3703C93.3333 51.4814 91.4815 52.7777 88.3333 52.7777C83.3333 52.7777 79.6296 48.8888 79.6296 43.8888C79.6296 38.8888 83.5185 35 88.3333 35C90.9259 35 92.9629 36.1111 94.4444 37.4074L96.8518 35C94.8148 33.1481 92.2222 31.6666 88.5185 31.6666C81.8518 31.6666 76.1111 37.2222 76.1111 43.8888C76.1111 50.5555 81.8518 56.1111 88.5185 56.1111C92.2222 56.1111 94.8148 55 97.037 52.5925C99.2592 50.3703 100 47.2222 100 44.8148C100 44.074 100 43.3333 99.8148 42.7777H88.3333ZM172.407 45.3703C171.667 43.5185 169.815 40.3703 165.741 40.3703C161.667 40.3703 158.333 43.5185 158.333 48.3333C158.333 52.7777 161.667 56.2963 166.111 56.2963C169.63 56.2963 171.852 54.074 172.593 52.7777L170 50.9259C169.074 52.2222 167.963 53.1481 166.111 53.1481C164.259 53.1481 163.148 52.4074 162.222 50.7407L172.778 46.2963L172.407 45.3703ZM161.667 47.9629C161.667 45 164.074 43.3333 165.741 43.3333C167.037 43.3333 168.333 44.074 168.704 45L161.667 47.9629ZM152.963 55.5555H156.481V32.4074H152.963V55.5555ZM147.407 42.037C146.481 41.1111 145 40.1851 143.148 40.1851C139.259 40.1851 135.556 43.7037 135.556 48.1481C135.556 52.5925 139.074 55.9259 143.148 55.9259C145 55.9259 146.481 55 147.222 54.074H147.407V55.1851C147.407 58.1481 145.741 59.8148 143.148 59.8148C141.111 59.8148 139.63 58.3333 139.259 57.037L136.296 58.3333C137.222 60.3703 139.444 62.9629 143.333 62.9629C147.407 62.9629 150.741 60.5555 150.741 54.8148V40.7407H147.407V42.037ZM143.333 52.9629C140.926 52.9629 138.889 50.9259 138.889 48.1481C138.889 45.3703 140.926 43.3333 143.333 43.3333C145.741 43.3333 147.593 45.3703 147.593 48.1481C147.593 50.9259 145.741 52.9629 143.333 52.9629ZM188.518 32.4074H180.185V55.5555H183.704V46.8518H188.518C192.407 46.8518 196.111 44.074 196.111 39.6296C196.111 35.1851 192.407 32.4074 188.518 32.4074ZM188.704 43.5185H183.704V35.5555H188.704C191.296 35.5555 192.778 37.7777 192.778 39.4444C192.593 41.4814 191.111 43.5185 188.704 43.5185ZM210 40.1851C207.407 40.1851 204.815 41.2963 203.889 43.7037L207.037 45C207.778 43.7037 208.889 43.3333 210.185 43.3333C212.037 43.3333 213.704 44.4444 213.889 46.2963V46.4814C213.333 46.1111 211.852 45.5555 210.37 45.5555C207.037 45.5555 203.704 47.4074 203.704 50.7407C203.704 53.8888 206.481 55.9259 209.444 55.9259C211.852 55.9259 212.963 54.8148 213.889 53.7037H214.074V55.5555H217.407V46.6666C217.037 42.5926 213.889 40.1851 210 40.1851ZM209.63 52.9629C208.518 52.9629 206.852 52.4074 206.852 50.9259C206.852 49.074 208.889 48.5185 210.556 48.5185C212.037 48.5185 212.778 48.8888 213.704 49.2592C213.333 51.4814 211.481 52.9629 209.63 52.9629ZM229.074 40.7407L225.185 50.7407H225L220.926 40.7407H217.222L223.333 54.8148L219.815 62.5925H223.333L232.778 40.7407H229.074ZM197.963 55.5555H201.481V32.4074H197.963V55.5555Z" fill="white"/>
<path d="M19.2593 13.8889C18.7037 14.4445 18.5186 15.3704 18.5186 16.4815V57.4074C18.5186 58.5185 18.8889 59.4445 19.4445 60L19.6297 60.1852L42.5926 37.2222V36.8519L19.2593 13.8889Z" fill="url(#paint0_linear_1587_5066)"/>
<path d="M50.0001 45L42.4075 37.4074V36.8519L50.0001 29.2593L50.1852 29.4445L59.2593 34.6296C61.8519 36.1111 61.8519 38.5185 59.2593 40L50.0001 45Z" fill="url(#paint1_linear_1587_5066)"/>
<path d="M50.1852 44.8149L42.4074 37.0371L19.2593 60.1853C20.1852 61.1112 21.4815 61.1112 23.1482 60.3704L50.1852 44.8149Z" fill="url(#paint2_linear_1587_5066)"/>
<path d="M50.1852 29.2594L23.1482 13.889C21.4815 12.9631 20.1852 13.1483 19.2593 14.0742L42.4074 37.0372L50.1852 29.2594Z" fill="url(#paint3_linear_1587_5066)"/>
<path opacity="0.2" d="M50 44.6296L23.1482 59.8148C21.6667 60.7407 20.3704 60.5556 19.4445 59.8148L19.2593 60L19.4445 60.1852C20.3704 60.9259 21.6667 61.1111 23.1482 60.1852L50 44.6296Z" fill="black"/>
<path opacity="0.12" d="M19.2593 59.8149C18.7037 59.2593 18.5186 58.3334 18.5186 57.2223V57.4075C18.5186 58.5186 18.8889 59.4445 19.4445 60.0001V59.8149H19.2593ZM59.2593 39.4445L50 44.6297L50.1852 44.8149L59.2593 39.6297C60.5556 38.889 61.1111 37.963 61.1111 37.0371C61.1111 37.963 60.3704 38.7038 59.2593 39.4445Z" fill="black"/>
<path opacity="0.25" d="M23.1482 14.0741L59.2593 34.6297C60.3704 35.3704 61.1111 36.1112 61.1111 37.0371C61.1111 36.1112 60.5556 35.1852 59.2593 34.4445L23.1482 13.8889C20.5556 12.4075 18.5186 13.5186 18.5186 16.4815V16.6667C18.5186 13.8889 20.5556 12.5927 23.1482 14.0741Z" fill="white"/>
<defs>
<linearGradient id="paint0_linear_1587_5066" x1="40.3704" y1="16.1297" x2="9.29078" y2="47.2074" gradientUnits="userSpaceOnUse">
<stop stop-color="#00A0FF"/>
<stop offset="0.007" stop-color="#00A1FF"/>
<stop offset="0.26" stop-color="#00BEFF"/>
<stop offset="0.512" stop-color="#00D2FF"/>
<stop offset="0.76" stop-color="#00DFFF"/>
<stop offset="1" stop-color="#00E3FF"/>
</linearGradient>
<linearGradient id="paint1_linear_1587_5066" x1="62.6556" y1="37.0389" x2="17.8464" y2="37.0389" gradientUnits="userSpaceOnUse">
<stop stop-color="#FFE000"/>
<stop offset="0.409" stop-color="#FFBD00"/>
<stop offset="0.775" stop-color="#FFA500"/>
<stop offset="1" stop-color="#FF9C00"/>
</linearGradient>
<linearGradient id="paint2_linear_1587_5066" x1="45.9759" y1="41.289" x2="3.8315" y2="83.4334" gradientUnits="userSpaceOnUse">
<stop stop-color="#FF3A44"/>
<stop offset="1" stop-color="#C31162"/>
</linearGradient>
<linearGradient id="paint3_linear_1587_5066" x1="13.513" y1="0.326061" x2="32.3334" y2="19.1464" gradientUnits="userSpaceOnUse">
<stop stop-color="#32A071"/>
<stop offset="0.069" stop-color="#2DA771"/>
<stop offset="0.476" stop-color="#15CF74"/>
<stop offset="0.801" stop-color="#06E775"/>
<stop offset="1" stop-color="#00F076"/>
</linearGradient>
</defs>
</svg>
