<svg width="22" height="22" viewBox="0 0 22 22" fill="none" xmlns="http://www.w3.org/2000/svg">
<path d="M21.8443 11.1676C21.8443 10.449 21.7806 9.76678 21.6715 9.10278H11.3931V13.205H17.2782C17.0144 14.5512 16.2413 15.6882 15.0952 16.4614V19.1901H18.6062C20.6619 17.2891 21.8443 14.4876 21.8443 11.1676Z" fill="#4285F4"/>
<path d="M11.3927 21.837C14.3397 21.837 16.8047 20.8546 18.6057 19.1901L15.0947 16.4613C14.1123 17.1162 12.8662 17.5164 11.3927 17.5164C8.54566 17.5164 6.13525 15.5972 5.27114 13.0049H1.65097V15.8155C3.44286 19.3811 7.1267 21.837 11.3927 21.837Z" fill="#34A853"/>
<path d="M5.27138 13.0049C5.04398 12.35 4.92573 11.6496 4.92573 10.9219C4.92573 10.1942 5.05308 9.49385 5.27138 8.83895V6.02832H1.65121C0.90535 7.50185 0.477844 9.1573 0.477844 10.9219C0.477844 12.6865 0.90535 14.342 1.65121 15.8155L5.27138 13.0049Z" fill="#FBBC05"/>
<path d="M11.3927 4.32763C13.0026 4.32763 14.4398 4.88248 15.5768 5.96489L18.6876 2.85409C16.8047 1.08949 14.3397 0.00708008 11.3927 0.00708008C7.1267 0.00708008 3.44286 2.46297 1.65097 6.02856L5.27114 8.83919C6.13525 6.24686 8.54566 4.32763 11.3927 4.32763Z" fill="#EA4335"/>
</svg>
