<svg width="102" height="61" viewBox="0 0 102 61" fill="none" xmlns="http://www.w3.org/2000/svg">
<g clip-path="url(#clip0_191_2205)">
<path d="M15.0262 23.9655C15.0262 27.3783 12.4539 29.8742 8.99027 29.8742H6.54532V34.382H2.06293V18.0824H8.99027C12.4539 18.0824 15.0262 20.5528 15.0262 23.9655ZM10.4165 23.991C10.4165 22.8449 9.62697 22.0045 8.45544 22.0045H6.54532V25.9521H8.45544C9.65244 25.9521 10.4165 25.1371 10.4165 23.991Z" fill="#0C3C4A"/>
<path d="M29.7213 27.9641C29.7213 28.3461 29.6959 28.7281 29.6195 29.1102H20.2981C20.5783 30.5619 21.4951 31.3004 22.8704 31.3004C23.8891 31.3004 24.7296 30.8675 25.1371 30.1289H29.4412C28.5498 33.0068 26.0284 34.7896 22.8704 34.7896C18.9483 34.7896 16.0449 31.9371 16.0449 28.0914C16.0449 24.2203 18.9228 21.3933 22.8704 21.3933C26.9198 21.3933 29.7213 24.2967 29.7213 27.9641ZM20.3745 26.7162H25.4681C25.0861 25.4682 24.1947 24.7806 22.8704 24.7806C21.6225 24.7806 20.7311 25.4682 20.3745 26.7162Z" fill="#0C3C4A"/>
<path d="M39.5011 30.5872V34.382H36.5213C33.7453 34.382 32.0644 32.6756 32.0644 29.8996V25.137H29.7723V24.1183L35.4007 18.1333H36.2921V21.8007H39.4502V25.137H36.394V29.1356C36.394 30.0269 36.9288 30.5872 37.8457 30.5872H39.5011Z" fill="#0C3C4A"/>
<path d="M60.8435 26.2067C60.8435 30.9693 57.3543 34.3566 52.439 34.3566H45.8427V18.0824H52.439C57.3798 18.0824 60.8435 21.4697 60.8435 26.2067ZM56.2592 26.2067C56.2592 23.7873 54.6547 22.1828 52.2352 22.1828H50.3506V30.2562H52.2352C54.6547 30.2562 56.2592 28.6262 56.2592 26.2067Z" fill="#63A027"/>
<path d="M74.7236 30.9947C74.2142 30.9438 73.5266 31.0966 72.8644 31.3512C72.3041 31.5805 71.7183 31.7333 71.0816 31.6059C70.3431 31.4531 69.961 30.8673 70.1648 30.1288C70.2412 29.8232 70.394 29.5175 70.5977 29.2629C71.1835 28.4733 71.9475 27.8621 72.7371 27.3018C73.5266 26.7415 74.367 26.4614 75.3093 26.4868C76.6592 26.5123 77.8307 27.4801 78.0344 28.728C78.1872 29.6194 77.8052 30.4089 76.9648 30.7655C76.3026 31.0456 75.615 31.0711 74.7236 30.9947Z" fill="#63A027"/>
<path d="M74.2906 23.2779C74.1887 23.7618 74.1378 24.2457 73.985 24.7041C73.7558 25.3663 73.17 25.5701 72.5842 25.1626C71.2344 24.1948 70.776 23.1761 71.1835 21.7244C71.3108 21.2659 71.5655 20.833 71.7947 20.4C71.8711 20.2472 71.9985 20.1453 72.1003 20.0435C72.6606 19.5341 73.1955 19.636 73.5775 20.2727C73.7303 20.5274 73.8576 20.8075 73.9086 21.0877C74.0614 21.8008 74.1632 22.5393 74.2906 23.2779Z" fill="#63A027"/>
<path d="M68.1273 26.1813C68.1528 25.3154 68.4584 24.5004 68.9168 23.7873C69.1715 23.4053 69.3498 23.3798 69.7573 23.6345C70.4195 24.0674 70.9798 24.6023 71.3108 25.3408C71.6419 26.003 71.6419 26.6652 71.158 27.2764C70.6487 27.9131 69.6045 28.2951 68.7895 27.7858C68.3311 27.5056 68.1528 27.0217 68.1273 26.4869C68.1273 26.385 68.1273 26.2832 68.1273 26.1813Z" fill="#63A027"/>
<path d="M75.2329 22.9468C75.2838 21.9026 75.4367 21.0622 75.7423 20.2472C75.8187 20.018 75.946 19.8142 76.0734 19.6359C76.3026 19.3303 76.6337 19.3049 76.9138 19.5341C77.0921 19.6614 77.2449 19.8397 77.3468 20.018C77.8052 20.7565 78.1872 21.5461 78.0853 22.4629C77.9835 23.3034 77.6014 23.991 76.8629 24.3985C76.1752 24.7805 75.564 24.5258 75.3603 23.7872C75.2838 23.4816 75.2838 23.1251 75.2329 22.9468Z" fill="#63A027"/>
<path d="M80.1993 24.4749C80.1993 25.3918 79.7918 26.1049 79.0787 26.6142C79.0022 26.6652 78.8494 26.6652 78.7221 26.6652C78.5948 26.6652 78.4674 26.6397 78.3655 26.6652C78.1618 26.7161 78.0345 26.6142 77.9581 26.436C77.8307 26.1558 77.7798 25.8247 77.8816 25.5446C78.0599 25.0861 78.2382 24.6277 78.4674 24.1948C78.6202 23.8891 78.8494 23.609 79.0532 23.3543C79.1551 23.227 79.2824 23.0996 79.4352 22.9977C79.639 22.8704 79.8682 22.9468 79.9446 23.2015C80.0464 23.558 80.0974 23.9655 80.1738 24.3476C80.1992 24.373 80.1993 24.424 80.1993 24.4749Z" fill="#63A027"/>
<path d="M102 18.1588C102 28.0659 94.1049 36.1393 84.1723 36.2921V22.9978H87.3303L74.6981 2.44494L86.9738 9.1176L88.7311 10.1873V4.53333L92.0419 6.01049V11.6135L97.2884 14.4405L92.8315 10.3655V5.01723L89.4697 3.31086L86.7446 5.01723V6.92734L77.7288 1.06966C79.639 0.382022 81.7019 0 83.8412 0C93.8757 0 102 8.12435 102 18.1588Z" fill="#63A027"/>
<path d="M74.4689 3.61646L75.7423 5.55204L65.7078 21.979H63.1356L74.4689 3.61646Z" fill="#63A027"/>
<path d="M17.9296 37.9476V53.9162H13.6764L13.1925 52.7956C11.8936 53.8652 10.2382 54.4765 8.37903 54.4765C3.48914 54.4765 0 50.9109 0 45.9446C0 41.0038 3.48914 37.4637 8.37903 37.4637C10.2637 37.4637 11.9446 38.1004 13.2689 39.1701L13.8292 37.9222L17.9296 37.9476ZM12.6831 45.9446C12.6831 43.8817 11.1805 42.3027 9.1176 42.3027C7.05468 42.3027 5.55206 43.8563 5.55206 45.9446C5.55206 48.033 7.05468 49.5866 9.1176 49.5866C11.1805 49.5866 12.6831 48.033 12.6831 45.9446Z" fill="#0C3C4A"/>
<path d="M37.3108 37.9476V52.1589C37.3108 57.1761 34.0254 60.2832 28.7535 60.2832C24.2202 60.2832 21.0367 57.9911 20.3236 54.2218H25.6464C26.0284 55.2915 27.4037 55.8772 28.7281 55.8772C30.5618 55.8772 32.0644 54.7057 32.0644 52.7956V52.3117C30.8674 53.0757 29.4412 53.5087 27.8876 53.5087C23.3033 53.5087 19.9161 50.096 19.9161 45.4862C19.9161 40.9274 23.3288 37.4637 27.8876 37.4637C29.8232 37.4637 31.5805 38.1514 32.9303 39.3229L33.618 37.9731L37.3108 37.9476ZM28.779 48.9754C30.7655 48.9754 32.1663 47.5237 32.1663 45.4862C32.1663 43.4742 30.74 41.9971 28.779 41.9971C26.7925 41.9971 25.3663 43.4488 25.3663 45.4862C25.3663 47.5237 26.7925 48.9754 28.779 48.9754Z" fill="#0C3C4A"/>
<path d="M39.2719 45.9446C39.2719 41.0038 43.0157 37.4382 48.2367 37.4382C53.4322 37.4382 57.2015 41.0038 57.2015 45.9446C57.2015 50.8854 53.4322 54.451 48.2367 54.451C43.0157 54.451 39.2719 50.8854 39.2719 45.9446ZM48.2367 49.5101C50.2487 49.5101 51.6749 48.0585 51.6749 45.9446C51.6749 43.8562 50.2487 42.3791 48.2367 42.3791C46.2247 42.3791 44.7985 43.8307 44.7985 45.9446C44.7985 48.0585 46.2247 49.5101 48.2367 49.5101Z" fill="#0C3C4A"/>
<path d="M75.6659 37.9476V52.1589C75.6659 57.1761 72.3805 60.2832 67.1086 60.2832C62.5753 60.2832 59.3918 57.9911 58.6787 54.2218H64.0015C64.3835 55.2915 65.7588 55.8772 67.0832 55.8772C68.9169 55.8772 70.4195 54.7057 70.4195 52.7956V52.3117C69.2225 53.0757 67.7963 53.5087 66.2427 53.5087C61.6584 53.5087 58.2712 50.096 58.2712 45.4862C58.2712 40.9274 61.6839 37.4637 66.2427 37.4637C68.1783 37.4637 69.9356 38.1514 71.2854 39.3229L71.9731 37.9731L75.6659 37.9476ZM67.1341 48.9754C69.1206 48.9754 70.5214 47.5237 70.5214 45.4862C70.5214 43.4742 69.0951 41.9971 67.1341 41.9971C65.1476 41.9971 63.7214 43.4488 63.7214 45.4862C63.7214 47.5237 65.1221 48.9754 67.1341 48.9754Z" fill="#0C3C4A"/>
<path d="M95.251 37.9476L88.5528 53.2285C86.388 58.1184 84.427 59.8757 80.3011 59.8757H78.4165V55.1386H79.9191C82.033 55.1386 82.6697 54.5783 83.4083 52.5918L76.812 37.9476H82.797L86.1843 46.7596L89.3423 37.9476H95.251Z" fill="#0C3C4A"/>
<path d="M88.9603 10.2127L88.7311 10.0854V10.0599L88.9603 10.2127Z" fill="#63A027"/>
</g>
<defs>
<clipPath id="clip0_191_2205">
<rect width="102" height="60.2831" fill="white"/>
</clipPath>
</defs>
</svg>
