<svg width="218" height="217" viewBox="0 0 218 217" fill="none" xmlns="http://www.w3.org/2000/svg">
<path d="M37.4688 145.797V152.578V200.047V206.828H64.7188V196.656V155.969V145.797H37.4688Z" fill="#63A027"/>
<path d="M37.4688 152.578H10.2188V200.047H37.4688V152.578Z" fill="#63A027"/>
<path d="M153.281 37.2969H44.2812C42.4745 37.2969 40.7417 38.0113 39.4641 39.2831C38.1865 40.5548 37.4688 42.2796 37.4688 44.0781V118.672C37.4688 120.47 38.1865 122.195 39.4641 123.467C40.7417 124.739 42.4745 125.453 44.2812 125.453H173.719C175.526 125.453 177.258 124.739 178.536 123.467C179.814 122.195 180.531 120.47 180.531 118.672V64.4219C173.304 64.4219 166.373 61.5641 161.263 56.4771C156.152 51.3902 153.281 44.4909 153.281 37.2969ZM85.1562 67.8125V71.2031C85.1562 73.0016 84.4385 74.7265 83.1609 75.9982C81.8833 77.2699 80.1505 77.9844 78.3438 77.9844H64.7188C62.912 77.9844 61.1792 77.2699 59.9016 75.9982C58.624 74.7265 57.9062 73.0016 57.9062 71.2031V64.4219C57.9062 62.6234 58.624 60.8985 59.9016 59.6268C61.1792 58.3551 62.912 57.6406 64.7188 57.6406H78.3438C80.1505 57.6406 81.8833 58.3551 83.1609 59.6268C84.4385 60.8985 85.1562 62.6234 85.1562 64.4219V67.8125ZM166.906 111.891H132.844V98.3281H166.906V111.891Z" fill="#63A027"/>
<path d="M208.292 152.239C206.484 149.129 203.512 146.859 200.027 145.925C196.541 144.99 192.826 145.469 189.694 147.255L156.483 166.344C154.669 163.639 151.936 161.677 148.785 160.817L97.9638 147.289C94.0527 146.238 89.9363 146.203 86.0078 147.187L68.125 151.629V145.797C68.125 144.898 67.7661 144.035 67.1273 143.399C66.4885 142.763 65.6221 142.406 64.7188 142.406H37.4688C36.5654 142.406 35.699 142.763 35.0602 143.399C34.4214 144.035 34.0625 144.898 34.0625 145.797V149.188H10.2188C9.31536 149.188 8.44896 149.545 7.81017 150.181C7.17137 150.816 6.8125 151.679 6.8125 152.578V200.047C6.8125 200.946 7.17137 201.809 7.81017 202.444C8.44896 203.08 9.31536 203.438 10.2188 203.438H34.0625V206.828C34.0625 207.727 34.4214 208.59 35.0602 209.226C35.699 209.862 36.5654 210.219 37.4688 210.219H64.7188C65.6221 210.219 66.4885 209.862 67.1273 209.226C67.7661 208.59 68.125 207.727 68.125 206.828V202.149L72.5191 204.319C75.8304 205.964 79.4798 206.823 83.1806 206.828H134.172C138.36 206.837 142.474 205.737 146.094 203.641L203.319 170.752C206.436 168.945 208.709 165.985 209.64 162.516C210.572 159.048 210.087 155.353 208.292 152.239ZM34.0625 196.656H13.625V155.969H34.0625V196.656ZM61.3125 203.438H40.875V149.188H61.3125V203.438ZM199.913 164.886L142.688 197.775C140.1 199.266 137.162 200.05 134.172 200.047H83.1806C80.5309 200.052 77.917 199.437 75.5506 198.25L68.125 194.554V158.613L87.6428 153.765C90.4515 153.058 93.3955 153.081 96.1925 153.833L147.014 167.395C148.321 167.733 149.498 168.452 150.392 169.46C151.286 170.468 151.858 171.718 152.034 173.051C152.209 174.385 151.981 175.74 151.378 176.943C150.775 178.146 149.824 179.143 148.649 179.805C147.881 180.256 147.03 180.548 146.146 180.664C145.263 180.781 144.364 180.719 143.505 180.483L102.869 169.633C101.992 169.399 101.059 169.521 100.273 169.973C99.4873 170.424 98.9139 171.168 98.6791 172.04C98.4442 172.913 98.567 173.842 99.0206 174.624C99.4741 175.406 100.221 175.977 101.098 176.211L141.734 187.027C142.889 187.337 144.08 187.496 145.277 187.502C147.66 187.505 150 186.873 152.055 185.671C153.612 184.785 154.977 183.601 156.07 182.187C157.164 180.773 157.964 179.156 158.425 177.431C158.803 175.937 158.929 174.39 158.799 172.854L193.1 153.155C194.665 152.29 196.507 152.065 198.236 152.526C199.965 152.988 201.446 154.101 202.365 155.63C203.27 157.182 203.52 159.027 203.06 160.762C202.6 162.497 201.469 163.98 199.913 164.886Z" fill="#2A4C08"/>
<path d="M51.0938 200.047C51.9971 200.047 52.8635 199.69 53.5023 199.054C54.1411 198.418 54.5 197.555 54.5 196.656V193.266C54.5 192.366 54.1411 191.504 53.5023 190.868C52.8635 190.232 51.9971 189.875 51.0938 189.875C50.1904 189.875 49.324 190.232 48.6852 190.868C48.0464 191.504 47.6875 192.366 47.6875 193.266V196.656C47.6875 197.555 48.0464 198.418 48.6852 199.054C49.324 199.69 50.1904 200.047 51.0938 200.047ZM132.844 115.281H166.906C167.81 115.281 168.676 114.924 169.315 114.288C169.954 113.652 170.312 112.79 170.312 111.891V98.3281C170.312 97.4289 169.954 96.5665 169.315 95.9306C168.676 95.2947 167.81 94.9375 166.906 94.9375H132.844C131.94 94.9375 131.074 95.2947 130.435 95.9306C129.796 96.5665 129.438 97.4289 129.438 98.3281V111.891C129.438 112.79 129.796 113.652 130.435 114.288C131.074 114.924 131.94 115.281 132.844 115.281ZM136.25 101.719H163.5V108.5H136.25V101.719ZM64.7188 81.375H78.3438C81.0539 81.375 83.6531 80.3033 85.5695 78.3957C87.4859 76.4881 88.5625 73.9009 88.5625 71.2031V64.4219C88.5625 61.7241 87.4859 59.1369 85.5695 57.2293C83.6531 55.3217 81.0539 54.25 78.3438 54.25H64.7188C62.0086 54.25 59.4094 55.3217 57.493 57.2293C55.5766 59.1369 54.5 61.7241 54.5 64.4219V71.2031C54.5 73.9009 55.5766 76.4881 57.493 78.3957C59.4094 80.3033 62.0086 81.375 64.7188 81.375ZM78.3438 74.5938H74.9375V71.2031H81.75C81.75 72.1024 81.3911 72.9648 80.7523 73.6007C80.1135 74.2365 79.2471 74.5938 78.3438 74.5938ZM81.75 64.4219H74.9375V61.0312H78.3438C79.2471 61.0312 80.1135 61.3885 80.7523 62.0243C81.3911 62.6602 81.75 63.5226 81.75 64.4219ZM61.3125 64.4219C61.3125 63.5226 61.6714 62.6602 62.3102 62.0243C62.949 61.3885 63.8154 61.0312 64.7188 61.0312H68.125V74.5938H64.7188C63.8154 74.5938 62.949 74.2365 62.3102 73.6007C61.6714 72.9648 61.3125 72.1024 61.3125 71.2031V64.4219ZM105.594 77.9844C106.497 77.9844 107.364 77.6272 108.002 76.9913C108.641 76.3554 109 75.493 109 74.5938V64.4219C109 63.5226 108.641 62.6602 108.002 62.0243C107.364 61.3885 106.497 61.0312 105.594 61.0312C104.69 61.0312 103.824 61.3885 103.185 62.0243C102.546 62.6602 102.188 63.5226 102.188 64.4219V74.5938C102.188 75.493 102.546 76.3554 103.185 76.9913C103.824 77.6272 104.69 77.9844 105.594 77.9844ZM119.219 77.9844C120.122 77.9844 120.989 77.6272 121.627 76.9913C122.266 76.3554 122.625 75.493 122.625 74.5938V64.4219C122.625 63.5226 122.266 62.6602 121.627 62.0243C120.989 61.3885 120.122 61.0312 119.219 61.0312C118.315 61.0312 117.449 61.3885 116.81 62.0243C116.171 62.6602 115.812 63.5226 115.812 64.4219V74.5938C115.812 75.493 116.171 76.3554 116.81 76.9913C117.449 77.6272 118.315 77.9844 119.219 77.9844ZM132.844 77.9844C133.747 77.9844 134.614 77.6272 135.252 76.9913C135.891 76.3554 136.25 75.493 136.25 74.5938V64.4219C136.25 63.5226 135.891 62.6602 135.252 62.0243C134.614 61.3885 133.747 61.0312 132.844 61.0312C131.94 61.0312 131.074 61.3885 130.435 62.0243C129.796 62.6602 129.438 63.5226 129.438 64.4219V74.5938C129.438 75.493 129.796 76.3554 130.435 76.9913C131.074 77.6272 131.94 77.9844 132.844 77.9844ZM146.469 77.9844C147.372 77.9844 148.239 77.6272 148.877 76.9913C149.516 76.3554 149.875 75.493 149.875 74.5938V64.4219C149.875 63.5226 149.516 62.6602 148.877 62.0243C148.239 61.3885 147.372 61.0312 146.469 61.0312C145.565 61.0312 144.699 61.3885 144.06 62.0243C143.421 62.6602 143.062 63.5226 143.062 64.4219V74.5938C143.062 75.493 143.421 76.3554 144.06 76.9913C144.699 77.6272 145.565 77.9844 146.469 77.9844Z" fill="#2A4C08"/>
<path d="M180.531 6.78125C172.996 6.7967 165.73 9.56893 160.115 14.5705C154.5 19.572 150.928 26.4537 150.079 33.9062H44.2813C41.5736 33.9143 38.9791 34.9886 37.0644 36.8944C35.1498 38.8003 34.0706 41.3829 34.0625 44.0781V118.672C34.0706 121.367 35.1498 123.95 37.0644 125.856C38.9791 127.761 41.5736 128.836 44.2813 128.844H173.719C176.426 128.836 179.021 127.761 180.936 125.856C182.85 123.95 183.929 121.367 183.938 118.672V67.6091C191.699 66.713 198.824 62.9008 203.856 56.9513C208.889 51.0017 211.449 43.3639 211.014 35.5983C210.58 27.8327 207.182 20.5254 201.517 15.1695C195.851 9.8135 188.345 6.81309 180.531 6.78125ZM177.125 118.672C177.125 119.571 176.766 120.434 176.127 121.069C175.489 121.705 174.622 122.062 173.719 122.062H44.2813C43.3779 122.062 42.5115 121.705 41.8727 121.069C41.2339 120.434 40.875 119.571 40.875 118.672V44.0781C40.875 43.1789 41.2339 42.3165 41.8727 41.6806C42.5115 41.0447 43.3779 40.6875 44.2813 40.6875H150.079C150.862 47.559 153.963 53.963 158.876 58.853C163.788 63.743 170.222 66.8298 177.125 67.6091V118.672ZM180.531 61.0312C175.815 61.0312 171.205 59.6393 167.284 57.0313C163.363 54.4233 160.307 50.7165 158.503 46.3796C156.698 42.0427 156.226 37.2705 157.146 32.6665C158.066 28.0625 160.337 23.8334 163.671 20.5141C167.006 17.1948 171.254 14.9343 175.88 14.0185C180.505 13.1028 185.299 13.5728 189.656 15.3692C194.013 17.1656 197.737 20.2077 200.357 24.1108C202.977 28.0139 204.375 32.6027 204.375 37.2969C204.368 43.5894 201.853 49.6222 197.383 54.0717C192.913 58.5212 186.853 61.0241 180.531 61.0312Z" fill="#2A4C08"/>
<path d="M112.406 108.5H119.219C120.122 108.5 120.989 108.143 121.627 107.507C122.266 106.871 122.625 106.009 122.625 105.109C122.625 104.21 122.266 103.348 121.627 102.712C120.989 102.076 120.122 101.719 119.219 101.719H112.406C111.503 101.719 110.636 102.076 109.998 102.712C109.359 103.348 109 104.21 109 105.109C109 106.009 109.359 106.871 109.998 107.507C110.636 108.143 111.503 108.5 112.406 108.5ZM91.9687 108.5H98.7812C99.6846 108.5 100.551 108.143 101.19 107.507C101.829 106.871 102.187 106.009 102.187 105.109C102.187 104.21 101.829 103.348 101.19 102.712C100.551 102.076 99.6846 101.719 98.7812 101.719H91.9687C91.0653 101.719 90.199 102.076 89.5602 102.712C88.9214 103.348 88.5625 104.21 88.5625 105.109C88.5625 106.009 88.9214 106.871 89.5602 107.507C90.199 108.143 91.0653 108.5 91.9687 108.5ZM78.3437 101.719H71.5312C70.6279 101.719 69.7615 102.076 69.1227 102.712C68.4839 103.348 68.125 104.21 68.125 105.109C68.125 106.009 68.4839 106.871 69.1227 107.507C69.7615 108.143 70.6279 108.5 71.5312 108.5H78.3437C79.2471 108.5 80.1135 108.143 80.7523 107.507C81.3911 106.871 81.75 106.009 81.75 105.109C81.75 104.21 81.3911 103.348 80.7523 102.712C80.1135 102.076 79.2471 101.719 78.3437 101.719ZM51.0937 108.5H57.9062C58.8096 108.5 59.676 108.143 60.3148 107.507C60.9536 106.871 61.3125 106.009 61.3125 105.109C61.3125 104.21 60.9536 103.348 60.3148 102.712C59.676 102.076 58.8096 101.719 57.9062 101.719H51.0937C50.1904 101.719 49.324 102.076 48.6852 102.712C48.0464 103.348 47.6875 104.21 47.6875 105.109C47.6875 106.009 48.0464 106.871 48.6852 107.507C49.324 108.143 50.1904 108.5 51.0937 108.5ZM173.719 50.8593C174.622 50.8591 175.488 50.5018 176.127 49.8659L195.396 30.6851C196.017 30.0456 196.36 29.1891 196.352 28.3001C196.344 27.4111 195.986 26.5607 195.355 25.9321C194.723 25.3034 193.869 24.9468 192.976 24.9391C192.083 24.9314 191.222 25.2731 190.58 25.8908L173.719 42.6743L166.494 35.4794C166.18 35.1556 165.804 34.8973 165.388 34.7196C164.973 34.5419 164.526 34.4484 164.074 34.4445C163.621 34.4405 163.173 34.5263 162.754 34.6968C162.336 34.8673 161.955 35.1191 161.635 35.4374C161.316 35.7558 161.063 36.1343 160.891 36.551C160.72 36.9677 160.634 37.4142 160.638 37.8644C160.642 38.3146 160.736 38.7595 160.914 39.1732C161.093 39.5869 161.352 39.961 161.678 40.2738L171.311 49.8659C171.949 50.5018 172.815 50.8591 173.719 50.8593Z" fill="#2A4C08"/>
</svg>
