<svg width="44" height="44" viewBox="0 0 44 44" fill="none" xmlns="http://www.w3.org/2000/svg">
<path fill-rule="evenodd" clip-rule="evenodd" d="M22 43.75C24.8563 43.75 27.6845 43.1874 30.3234 42.0944C32.9622 41.0013 35.3599 39.3992 37.3796 37.3796C39.3992 35.3599 41.0013 32.9622 42.0944 30.3234C43.1874 27.6845 43.75 24.8563 43.75 22C43.75 19.1438 43.1874 16.3155 42.0944 13.6766C41.0013 11.0378 39.3992 8.6401 37.3796 6.62043C35.3599 4.60075 32.9622 2.99866 30.3234 1.90562C27.6845 0.81258 24.8563 0.25 22 0.25C16.2315 0.25 10.6993 2.54151 6.62043 6.62043C2.54151 10.6993 0.25 16.2315 0.25 22C0.25 27.7685 2.54151 33.3007 6.62043 37.3796C10.6993 41.4585 16.2315 43.75 22 43.75ZM19.0589 12.3092L32.6986 19.8878C33.0751 20.0972 33.3889 20.4034 33.6073 20.7748C33.8257 21.1461 33.9409 21.5692 33.9409 22C33.9409 22.4308 33.8257 22.8539 33.6073 23.2252C33.3889 23.5966 33.0751 23.9028 32.6986 24.1122L19.0589 31.6908C18.6173 31.9363 18.1191 32.0621 17.6139 32.0559C17.1087 32.0496 16.6138 31.9114 16.1784 31.655C15.743 31.3986 15.3822 31.0329 15.1316 30.5941C14.8811 30.1553 14.7495 29.6586 14.75 29.1533V14.8467C14.7495 14.3414 14.8811 13.8447 15.1316 13.4059C15.3822 12.9671 15.743 12.6014 16.1784 12.345C16.6138 12.0886 17.1087 11.9504 17.6139 11.9441C18.1191 11.9379 18.6173 12.0637 19.0589 12.3092Z" fill="white"/>
</svg>
