<svg width="30" height="30" viewBox="0 0 30 30" fill="none" xmlns="http://www.w3.org/2000/svg">
<path d="M13.189 19.8196C13.189 20.1059 13.109 20.3858 12.9593 20.6239C12.8095 20.862 12.5967 21.0475 12.3477 21.1571C12.0987 21.2666 11.8246 21.2953 11.5603 21.2394C11.2959 21.1836 11.0531 21.0457 10.8625 20.8433C10.6719 20.6408 10.5421 20.3829 10.4895 20.102C10.437 19.8212 10.4639 19.5302 10.5671 19.2656C10.6702 19.0011 10.8449 18.775 11.069 18.616C11.2931 18.4569 11.5566 18.372 11.8262 18.372C12.1876 18.372 12.5342 18.5245 12.7898 18.796C13.0454 19.0675 13.189 19.4357 13.189 19.8196ZM18.1859 18.372C17.9164 18.372 17.6529 18.4569 17.4288 18.616C17.2047 18.775 17.03 19.0011 16.9269 19.2656C16.8237 19.5302 16.7967 19.8212 16.8493 20.102C16.9019 20.3829 17.0317 20.6408 17.2223 20.8433C17.4129 21.0457 17.6557 21.1836 17.9201 21.2394C18.1844 21.2953 18.4584 21.2666 18.7075 21.1571C18.9565 21.0475 19.1693 20.862 19.3191 20.6239C19.4688 20.3858 19.5487 20.1059 19.5487 19.8196C19.5487 19.4357 19.4052 19.0675 19.1496 18.796C18.894 18.5245 18.5474 18.372 18.1859 18.372ZM25 22.7149C24.9999 23.9445 24.6596 25.147 24.0215 26.1729C23.3833 27.1987 22.4754 28.0028 21.4106 28.485C20.3458 28.9673 19.1711 29.1065 18.0324 28.8853C16.8937 28.6642 15.8413 28.0925 15.006 27.2412C14.4436 27.8177 13.7789 28.2699 13.0507 28.5715C12.3224 28.8731 11.545 29.0181 10.7636 28.9982C9.98218 28.9782 9.21226 28.7937 8.49849 28.4553C7.78471 28.1169 7.14129 27.6313 6.60552 27.0267C6.06975 26.4221 5.65229 25.7106 5.37736 24.9334C5.10243 24.1561 4.97549 23.3286 5.0039 22.4989C5.03232 21.6691 5.21552 20.8536 5.54288 20.0996C5.87025 19.3456 6.33526 18.6682 6.91096 18.1066C7.02715 17.2365 7.26765 16.3903 7.62417 15.5973C5.46639 11.0252 4.16377 4.95234 5.65264 2.33694C5.87425 1.9251 6.19573 1.58389 6.58361 1.34881C6.97149 1.11373 7.41159 0.993378 7.85812 1.00028C9.46169 1.00028 10.8109 2.43465 11.9965 5.38664C12.7029 7.15035 13.2287 9.16498 13.5865 10.7839C14.5256 10.6076 15.4865 10.6076 16.4256 10.7839C16.7811 9.16498 17.3069 7.15035 18.0156 5.38664C19.1967 2.43465 20.5504 1.00028 22.154 1.00028C22.6005 0.993378 23.0406 1.11373 23.4285 1.34881C23.8164 1.58389 24.1378 1.9251 24.3595 2.33694C25.8483 4.95234 24.5457 11.0252 22.3879 15.5973C22.7432 16.389 22.9829 17.2334 23.0989 18.1018C23.6998 18.6884 24.1792 19.4015 24.5065 20.1958C24.8338 20.99 25.0019 21.8479 25 22.7149ZM18.1734 11.3304C19.3519 11.8548 20.3977 12.6665 21.2261 13.6997C21.9805 11.9145 22.5454 10.0456 22.9103 8.1275C23.3067 5.94036 23.2681 4.14649 22.8047 3.33581C22.7459 3.20768 22.6527 3.10087 22.537 3.02876C22.4212 2.95665 22.288 2.92245 22.154 2.93047C21.4033 2.93047 20.505 4.10065 19.6873 6.14182C19.0138 7.8235 18.5119 9.7754 18.1734 11.3304ZM8.78596 13.6997C9.61444 12.6665 10.6602 11.8548 11.8387 11.3304C11.498 9.7754 10.9983 7.8235 10.3248 6.14303C9.50711 4.10065 8.6088 2.93047 7.85812 2.93047C7.72413 2.92245 7.59089 2.95665 7.47512 3.02876C7.35936 3.10087 7.26621 3.20768 7.20737 3.33581C6.74402 4.1489 6.70541 5.94639 7.10176 8.1275C7.46671 10.0456 8.03159 11.9145 8.78596 13.6997ZM23.1829 22.7149C23.1844 22.0673 23.0491 21.4277 22.7869 20.8431C22.5247 20.2585 22.1423 19.7438 21.6679 19.3371C21.5743 19.2563 21.4968 19.1566 21.4399 19.0437C21.383 18.9309 21.3477 18.8071 21.3363 18.6796C21.1842 17.0083 20.4515 15.457 19.2812 14.3283C18.1109 13.1995 16.5868 12.5742 15.006 12.5742C13.4253 12.5742 11.9012 13.1995 10.7309 14.3283C9.56059 15.457 8.82795 17.0083 8.6758 18.6796C8.66435 18.8071 8.62914 18.9309 8.5722 19.0437C8.51527 19.1566 8.43776 19.2563 8.34418 19.3371C7.9128 19.7028 7.55558 20.1575 7.29407 20.6738C7.03255 21.1901 6.87216 21.7573 6.82255 22.3412C6.77293 22.9251 6.83514 23.5136 7.0054 24.0713C7.17566 24.629 7.45046 25.1443 7.81324 25.5861C8.17602 26.028 8.61926 26.3872 9.11625 26.6422C9.61324 26.8972 10.1537 27.0426 10.705 27.0698C11.2563 27.097 11.8071 27.0053 12.3242 26.8002C12.8413 26.5952 13.3139 26.2811 13.7137 25.8768L12.6075 24.9008C12.5158 24.8197 12.44 24.7202 12.3845 24.608C12.329 24.4958 12.2948 24.373 12.2839 24.2468C12.2731 24.1205 12.2857 23.9933 12.3212 23.8722C12.3566 23.7512 12.4142 23.6387 12.4905 23.5413C12.5669 23.4438 12.6606 23.3633 12.7662 23.3044C12.8719 23.2454 12.9874 23.2091 13.1063 23.1976C13.2251 23.186 13.3449 23.1995 13.4589 23.2371C13.5729 23.2748 13.6787 23.3359 13.7704 23.417L15.006 24.5124L16.2417 23.4206C16.4269 23.2568 16.6658 23.1779 16.9058 23.2012C17.1459 23.2245 17.3674 23.3481 17.5216 23.5449C17.6758 23.7417 17.7501 23.9954 17.7282 24.2504C17.7062 24.5054 17.5898 24.7407 17.4046 24.9045L16.2984 25.8804C16.88 26.4595 17.6083 26.8453 18.3936 26.9905C19.1789 27.1357 19.987 27.0338 20.7186 26.6974C21.4501 26.3611 22.0731 25.8049 22.5109 25.0973C22.9488 24.3897 23.1823 23.5616 23.1829 22.7149Z" fill="black"/>
</svg>
