<svg width="13" height="13" viewBox="0 0 13 13" fill="none" xmlns="http://www.w3.org/2000/svg">
<g clip-path="url(#clip0_4738_25073)">
<path d="M6.5 3.25H5.6875V7.3125H8.9375V6.5H6.5V3.25Z" fill="#666666"/>
<path d="M6.5 0C4.0625 0 1.95 1.3 0.89375 3.33125L0 2.4375V5.6875H3.25L2.03125 4.46875C2.84375 2.84375 4.55 1.625 6.5 1.625C9.18125 1.625 11.375 3.81875 11.375 6.5C11.375 9.18125 9.18125 11.375 6.5 11.375C5.0375 11.375 3.7375 10.725 2.84375 9.66875L1.625 10.725C2.7625 12.1062 4.55 13 6.5 13C10.075 13 13 10.075 13 6.5C13 2.925 10.075 0 6.5 0Z" fill="#666666"/>
</g>
<defs>
<clipPath id="clip0_4738_25073">
<rect width="13" height="13" fill="white"/>
</clipPath>
</defs>
</svg>
