<svg width="9" height="14" viewBox="0 0 9 14" fill="none" xmlns="http://www.w3.org/2000/svg">
<path d="M6.50098 6.6147L0.69563 1.41296C0.580253 1.30464 0.527649 1.17228 0.528861 1.04724C0.530085 0.921121 0.586214 0.787903 0.706227 0.680368L0.373627 0.309172L0.706228 0.680367C0.827965 0.571287 1.0031 0.501527 1.19608 0.500024C1.38763 0.498533 1.56338 0.564567 1.68767 0.670847L8.32268 6.61598C8.3227 6.616 8.32272 6.61602 8.32274 6.61603C8.44402 6.72476 8.5 6.85967 8.5 6.98708C8.5 7.11449 8.44402 7.2494 8.32274 7.35812C8.32272 7.35814 8.3227 7.35816 8.32268 7.35817L1.684 13.3066L1.68395 13.3065L1.6776 13.3124C1.61779 13.3679 1.54329 13.4148 1.45713 13.448C1.37093 13.4812 1.27654 13.4992 1.17985 13.5C1.08316 13.5007 0.988306 13.4842 0.901261 13.4522C0.81424 13.4203 0.738554 13.3744 0.677387 13.3196C0.616329 13.2649 0.571426 13.2029 0.542219 13.139C0.513109 13.0752 0.49939 13.0092 0.500021 12.9442C0.500651 12.8792 0.515655 12.8132 0.546141 12.7496L0.0952763 12.5334L0.546141 12.7496C0.57673 12.6858 0.623059 12.6242 0.685463 12.5702L0.685511 12.5703L0.691933 12.5645L6.50098 7.35946L6.91657 6.98708L6.50098 6.6147Z" fill="#A084E8" stroke="white"/>
</svg>
